<svg width="13" height="9" viewBox="0 0 13 9" fill="none" xmlns="http://www.w3.org/2000/svg">
<path d="M4.54492 0.25C4.42198 0.250012 4.27662 0.3034 4.20312 0.439453C4.16472 0.510684 4.15125 0.599952 4.18066 0.688477C4.20937 0.774769 4.26992 0.834191 4.33105 0.871094L4.33203 0.87207L9.26562 3.82324H0.630859C0.550391 3.82324 0.46656 3.84527 0.396484 3.89355C0.327829 3.94087 0.25 4.03197 0.25 4.16309V4.83691C0.25 4.96803 0.327828 5.05913 0.396484 5.10645C0.46656 5.15473 0.550391 5.17676 0.630859 5.17676H9.26562L4.33301 8.12793H4.33398C4.27224 8.16459 4.21155 8.22415 4.18262 8.31055C4.15307 8.3992 4.16617 8.48874 4.2041 8.55957C4.27711 8.69529 4.4227 8.75 4.54688 8.75H6.03809C6.11076 8.75 6.18512 8.73162 6.25098 8.69238H6.25195L12.4482 4.98535C12.5312 4.93579 12.6062 4.86982 12.6611 4.78711C12.7167 4.70325 12.75 4.60407 12.75 4.49902C12.7499 4.39413 12.7166 4.29567 12.6611 4.21191C12.6062 4.12916 12.5312 4.06326 12.4482 4.01367L6.28711 0.329102C6.19663 0.275344 6.09088 0.25007 5.98828 0.25H4.54492Z" fill="#138082" stroke="#138082" stroke-width="0.5"/>
</svg>
