<svg width="9" height="5" viewBox="0 0 9 5" fill="none" xmlns="http://www.w3.org/2000/svg">
<path fill-rule="evenodd" clip-rule="evenodd" d="M0.131629 0.1666C-0.0438709 0.350691 -0.0438709 0.648418 0.131629 0.832054L3.85043 4.72433C3.9324 4.81145 4.03106 4.88083 4.14041 4.92824C4.24976 4.97564 4.36751 5.00009 4.4865 5.00009C4.6055 5.00009 4.72325 4.97564 4.8326 4.92824C4.94195 4.88083 5.04061 4.81145 5.12258 4.72433L8.86883 0.803872C8.95255 0.714897 8.99961 0.597068 9.00045 0.474317C9.00128 0.351565 8.95583 0.233094 8.87333 0.142963C8.83259 0.0983142 8.7832 0.062589 8.72824 0.0380001C8.67327 0.0134111 8.61389 0.000481941 8.55378 1.32183e-05C8.49366 -0.000455505 8.43409 0.0115462 8.37876 0.0352751C8.32342 0.059004 8.2735 0.0939549 8.23208 0.137963L4.80443 3.72615C4.76344 3.76974 4.7141 3.80446 4.6594 3.82819C4.60471 3.85191 4.5458 3.86415 4.48628 3.86415C4.42675 3.86415 4.36785 3.85191 4.31316 3.82819C4.25846 3.80446 4.20912 3.76974 4.16813 3.72615L0.767479 0.1666C0.726529 0.123013 0.677223 0.0883036 0.622565 0.0645843C0.567908 0.040865 0.509043 0.0286329 0.449554 0.0286329C0.390066 0.0286329 0.3312 0.040865 0.276542 0.0645843C0.221884 0.0883036 0.172579 0.123013 0.131629 0.1666Z" fill="#8E8E93"/>
</svg>
