<svg width="14" height="14" viewBox="0 0 14 14" fill="none" xmlns="http://www.w3.org/2000/svg">
<path d="M0.148438 5.90039H11.0048L4.50693 0.259766C4.40303 0.168848 4.46611 0 4.60342 0H6.24551C6.31787 0 6.38652 0.0259764 6.44033 0.0723632L13.4521 6.15645C13.5164 6.21211 13.5679 6.28093 13.6032 6.35824C13.6385 6.43556 13.6567 6.51955 13.6567 6.60454C13.6567 6.68953 13.6385 6.77353 13.6032 6.85084C13.5679 6.92815 13.5164 6.99697 13.4521 7.05264L6.39951 13.1738C6.37168 13.1979 6.33828 13.2109 6.30303 13.2109H4.60527C4.46797 13.2109 4.40488 13.0402 4.50879 12.9512L11.0048 7.31055H0.148438C0.0667973 7.31055 0 7.24375 0 7.16211V6.04883C0 5.96719 0.0667973 5.90039 0.148438 5.90039Z" fill="#FFFEFB"/>
</svg>
