<svg width="29" height="22" viewBox="0 0 29 22" fill="none" xmlns="http://www.w3.org/2000/svg">
<path fill-rule="evenodd" clip-rule="evenodd" d="M8.7 1.375C8.7 0.615608 9.34919 0 10.15 0H27.55C28.3508 0 29 0.615608 29 1.375C29 2.13439 28.3508 2.75 27.55 2.75H10.15C9.34919 2.75 8.7 2.13439 8.7 1.375ZM0 11C0 10.2406 0.649187 9.625 1.45 9.625H27.55C28.3508 9.625 29 10.2406 29 11C29 11.7594 28.3508 12.375 27.55 12.375H1.45C0.649187 12.375 0 11.7594 0 11ZM8.7 20.625C8.7 19.8656 9.34919 19.25 10.15 19.25H27.55C28.3508 19.25 29 19.8656 29 20.625C29 21.3844 28.3508 22 27.55 22H10.15C9.34919 22 8.7 21.3844 8.7 20.625Z" fill="#363638"/>
</svg>
