<svg width="30" height="28" viewBox="0 0 30 28" fill="none" xmlns="http://www.w3.org/2000/svg">
<path fill-rule="evenodd" clip-rule="evenodd" d="M10.2075 14.7971C10.0173 14.7647 9.84485 14.6677 9.72059 14.5232C9.59633 14.3787 9.5282 14.1959 9.5282 14.0072C9.5282 13.8184 9.59633 13.6357 9.72059 13.4911C9.84485 13.3466 10.0173 13.2496 10.2075 13.2172H19.1968C19.387 13.2496 19.5594 13.3466 19.6837 13.4911C19.808 13.6357 19.8761 13.8184 19.8761 14.0072C19.8761 14.1959 19.808 14.3787 19.6837 14.5232C19.5594 14.6677 19.387 14.7647 19.1968 14.7971H10.2075ZM25.2222 19.6659H27.3438V21.3103H25.459C25.442 21.6693 25.3678 22.0236 25.2393 22.3604C25.1206 22.6316 24.9554 22.8809 24.751 23.0979C24.972 23.0472 25.1978 23.0192 25.4248 23.0143C25.7431 23.0253 26.0592 23.0709 26.3672 23.1504C26.7788 23.252 27.2003 23.3104 27.6245 23.3246C27.8501 23.3277 28.0753 23.3061 28.2959 23.2601C28.5571 23.1932 28.8107 23.1005 29.0527 22.9833L30.0098 25.0382C29.621 25.2386 29.2119 25.3985 28.7891 25.5155C28.4193 25.6048 28.0395 25.6481 27.6587 25.6444C27.1479 25.6347 26.6406 25.5593 26.1499 25.42C25.4175 25.222 24.9463 25.105 24.7656 25.074C24.5754 25.0416 24.3826 25.0256 24.1895 25.0263C23.479 25.0572 22.7894 25.2704 22.1899 25.6444L21.2793 23.6897C22.2656 22.9992 22.7596 22.3095 22.7612 21.6205C22.7612 21.5823 22.7612 21.4797 22.7441 21.3103H21.2793V19.6563H22.3291C22.1533 19.0549 22.0483 18.7017 22.0288 18.6086C21.9939 18.43 21.9751 18.2487 21.9727 18.0668C21.9653 17.5183 22.1288 16.9806 22.4414 16.5251C22.7357 16.0817 23.1617 15.737 23.6621 15.537C24.3201 15.3067 25.017 15.2014 25.7153 15.2267C26.3643 15.2045 27.0122 15.2942 27.6294 15.4916C28.1034 15.6685 28.5165 15.973 28.8208 16.3699C29.1607 16.8075 29.3915 17.3167 29.4946 17.8568L26.8091 18.2649C26.7402 17.9078 26.5798 17.5736 26.3428 17.2936C26.1833 17.1401 25.9684 17.0543 25.7446 17.0549C25.6226 17.0507 25.5011 17.0717 25.3879 17.1166C25.2748 17.1614 25.1725 17.229 25.0879 17.315C24.9115 17.5205 24.8239 17.785 24.8438 18.0525C24.8431 18.2177 24.8603 18.3825 24.895 18.5442C24.9243 18.7041 25.0391 19.074 25.2319 19.6587L25.2222 19.6659ZM18.0664 26.4129C18.274 26.424 18.4693 26.5125 18.6123 26.6601C18.7552 26.8077 18.8349 27.0032 18.8349 27.2064C18.8349 27.4097 18.7552 27.6052 18.6123 27.7528C18.4693 27.9004 18.274 27.9889 18.0664 28H1.88965C1.38868 27.9994 0.908417 27.8045 0.554179 27.4583C0.199941 27.112 0.000645994 26.6425 0 26.1527V1.84487C0.00129132 1.35555 0.200871 0.886676 0.555039 0.540901C0.909207 0.195126 1.3891 0.000629748 1.88965 0L25.083 0C25.5836 0.000629748 26.0634 0.195126 26.4176 0.540901C26.7718 0.886676 26.9714 1.35555 26.9727 1.84487V11.0263C26.9613 11.2292 26.8708 11.4202 26.7198 11.5599C26.5688 11.6996 26.3688 11.7775 26.1609 11.7775C25.953 11.7775 25.753 11.6996 25.602 11.5599C25.451 11.4202 25.3605 11.2292 25.3491 11.0263V1.84487C25.3461 1.77705 25.317 1.71284 25.2677 1.66507C25.2184 1.61729 25.1524 1.58945 25.083 1.58711H1.88965C1.82074 1.59144 1.75612 1.62132 1.70898 1.67064C1.66014 1.72006 1.63223 1.78571 1.63086 1.85442V26.1504C1.62994 26.1843 1.63643 26.218 1.64991 26.2493C1.66338 26.2806 1.68352 26.3087 1.70898 26.3317C1.73346 26.3563 1.76267 26.376 1.79493 26.3895C1.82719 26.403 1.86187 26.4101 1.89697 26.4105L18.0664 26.4129ZM10.2075 20.6086C10.0151 20.5744 9.84103 20.4753 9.71569 20.3286C9.59035 20.1818 9.5217 19.9967 9.5217 19.8055C9.5217 19.6143 9.59035 19.4292 9.71569 19.2824C9.84103 19.1356 10.0151 19.0365 10.2075 19.0024H17.2876C17.48 19.0365 17.6541 19.1356 17.7794 19.2824C17.9048 19.4292 17.9734 19.6143 17.9734 19.8055C17.9734 19.9967 17.9048 20.1818 17.7794 20.3286C17.6541 20.4753 17.48 20.5744 17.2876 20.6086H10.2075ZM10.2075 8.98568C10.0094 8.96866 9.82621 8.87587 9.69773 8.72748C9.56926 8.57909 9.50592 8.38712 9.52148 8.19332C9.51312 8.09709 9.52423 8.0002 9.55418 7.90817C9.58413 7.81614 9.63234 7.73079 9.69605 7.65698C9.75976 7.58318 9.83772 7.52237 9.92548 7.47803C10.0132 7.43369 10.1091 7.40669 10.2075 7.39857H19.1968C19.3935 7.41677 19.5751 7.50973 19.7025 7.65746C19.8299 7.80519 19.8929 7.99589 19.8779 8.18854C19.8936 8.38159 19.8309 8.5729 19.7034 8.72115C19.576 8.86941 19.394 8.96271 19.1968 8.98091L10.2075 8.98568ZM6.30127 18.7231C6.49124 18.7227 6.67708 18.7773 6.83524 18.8802C6.9934 18.9831 7.11676 19.1296 7.18968 19.3011C7.2626 19.4725 7.28181 19.6613 7.24486 19.8435C7.20792 20.0257 7.11649 20.193 6.98216 20.3243C6.84783 20.4556 6.67664 20.545 6.49029 20.5811C6.30395 20.6173 6.11083 20.5985 5.93541 20.5272C5.75999 20.4559 5.61016 20.3353 5.50492 20.1807C5.39968 20.0261 5.34376 19.8444 5.34424 19.6587C5.34424 19.4106 5.44507 19.1726 5.62455 18.9972C5.80402 18.8217 6.04745 18.7231 6.30127 18.7231ZM6.30127 12.9952C6.49124 12.9948 6.67708 13.0494 6.83524 13.1523C6.9934 13.2552 7.11676 13.4016 7.18968 13.5731C7.2626 13.7446 7.28181 13.9334 7.24486 14.1156C7.20792 14.2977 7.11649 14.4651 6.98216 14.5964C6.84783 14.7277 6.67664 14.8171 6.49029 14.8532C6.30395 14.8893 6.11083 14.8706 5.93541 14.7993C5.75999 14.728 5.61016 14.6074 5.50492 14.4528C5.39968 14.2982 5.34376 14.1165 5.34424 13.9308C5.34424 13.6827 5.44507 13.4447 5.62455 13.2692C5.80402 13.0938 6.04745 12.9952 6.30127 12.9952ZM6.30127 7.2673C6.49124 7.26683 6.67708 7.3215 6.83524 7.42438C6.9934 7.52726 7.11676 7.67373 7.18968 7.84521C7.2626 8.01669 7.28181 8.20548 7.24486 8.38765C7.20792 8.56981 7.11649 8.73716 6.98216 8.86848C6.84783 8.99979 6.67664 9.08917 6.49029 9.12529C6.30395 9.1614 6.11083 9.14263 5.93541 9.07134C5.75999 9.00005 5.61016 8.87947 5.50492 8.72486C5.39968 8.57025 5.34376 8.38857 5.34424 8.20286C5.34424 7.95474 5.44507 7.71677 5.62455 7.54132C5.80402 7.36587 6.04745 7.2673 6.30127 7.2673Z" fill="#FFFEFB"/>
</svg>
