<svg width="26" height="18" viewBox="0 0 26 18" fill="none" xmlns="http://www.w3.org/2000/svg">
<path d="M24.96 0H0.64C0.288 0 0 0.288 0 0.64V16.64C0 16.992 0.288 17.28 0.64 17.28H24.96C25.312 17.28 25.6 16.992 25.6 16.64V0.64C25.6 0.288 25.312 0 24.96 0ZM23.424 1.28L12.8 11.904L2.176 1.28H23.424ZM1.28 2.176L7.744 8.64L1.28 15.104V2.176ZM2.208 16L8.64 9.568L12.352 13.28C12.608 13.536 12.992 13.536 13.248 13.28L16.96 9.568L23.392 16H2.208ZM24.32 15.104L17.856 8.64L24.32 2.176V15.104Z" fill="white"/>
</svg>
