<svg width="36" height="31" viewBox="0 0 36 31" fill="none" xmlns="http://www.w3.org/2000/svg">
<path fill-rule="evenodd" clip-rule="evenodd" d="M15.0286 0H20.9714C22.8199 0 24.333 1.53017 24.333 3.39722V6.09652H32.9245C33.7697 6.09652 34.5403 6.4469 35.0972 7.00979C35.6534 7.57197 36 8.3502 36 9.20519V27.8913C36 28.7463 35.6534 29.5253 35.0972 30.0874C34.5403 30.6503 33.7697 31 32.9245 31H3.07547C2.22891 31 1.45898 30.6503 0.902812 30.0874C0.346641 29.5253 0 28.7463 0 27.8913V9.20519C0 8.3502 0.346641 7.57197 0.902812 7.00979C1.45898 6.4469 2.22891 6.09652 3.07547 6.09652H11.667V3.39722C11.667 1.52875 13.1801 0 15.0286 0ZM26.8439 29.8188V7.27844H9.15609V29.8188H26.8439ZM28.7923 7.27844V29.8188H32.9245C33.4477 29.8188 33.9251 29.6013 34.2703 29.2524C34.6155 28.9034 34.8307 28.4208 34.8307 27.8913V9.20519C34.8307 8.67642 34.6155 8.19384 34.2703 7.84488C33.9251 7.49592 33.4477 7.27844 32.9245 7.27844H28.7923ZM7.20773 29.8188V7.27844H3.07547C2.55164 7.27844 2.07422 7.49592 1.72969 7.84488C1.38445 8.19384 1.16859 8.67642 1.16859 9.20519V27.8913C1.16859 28.4208 1.38445 28.9034 1.72969 29.2524C2.07422 29.6013 2.55164 29.8188 3.07547 29.8188H7.20773ZM22.1913 6.09652V3.3894C22.1913 2.73483 21.6598 2.19895 21.0136 2.19895H14.9864C14.3395 2.19895 13.8087 2.73626 13.8087 3.3894V6.09652H22.1913Z" fill="#FFFEFB"/>
</svg>
