<svg width="32" height="26" viewBox="0 0 32 26" fill="none" xmlns="http://www.w3.org/2000/svg">
<path fill-rule="evenodd" clip-rule="evenodd" d="M23.599 8.54949H28.3906V7.83361C27.6406 5.08043 25.7344 5.09839 23.3776 5.12148C22.9896 5.12662 22.638 5.12918 22.6172 5.12918H4.70573C4.29427 5.12918 3.96094 4.80075 3.96094 4.39534C3.96094 3.98993 4.29427 3.6615 4.70573 3.6615H22.6172C23.1458 3.6615 23.2578 3.6615 23.3646 3.65894C25.3802 3.63841 27.1406 3.62045 28.3906 4.78279V4.44666C28.3906 3.62558 28.0495 2.88148 27.5 2.34008C26.9505 1.79868 26.1927 1.46255 25.362 1.46255H4.51562C3.68229 1.46255 2.92708 1.79868 2.3776 2.34008C1.82812 2.88148 1.48698 3.62815 1.48698 4.44666V21.5456C1.48698 22.3667 1.82812 23.1108 2.3776 23.6522C2.92708 24.1936 3.6849 24.5298 4.51562 24.5298H25.3594C26.1927 24.5298 26.9479 24.1936 27.4974 23.6522C28.0469 23.1108 28.388 22.3642 28.388 21.5456V19.1183H23.5964C22.151 19.1183 20.8359 18.5359 19.8854 17.5993C18.9349 16.6628 18.3438 15.367 18.3438 13.943V13.7197C18.3438 12.2957 18.9349 10.9999 19.8854 10.0634C20.8385 9.13195 22.151 8.54949 23.599 8.54949ZM29.8776 8.57772C30.4167 8.65726 30.8984 8.90871 31.2656 9.27307C31.7187 9.71953 31.9974 10.3353 31.9974 11.0127V16.555C31.9974 17.2632 31.7057 17.9047 31.2344 18.3691C30.8724 18.7257 30.401 18.9798 29.8776 19.0773V21.5482C29.8776 22.7721 29.3698 23.8857 28.5521 24.6914C27.7344 25.4971 26.6042 25.9974 25.362 25.9974H4.51562C3.27344 25.9974 2.14323 25.4971 1.32552 24.6914C0.507812 23.8883 0 22.7747 0 21.5508V4.44923C0 3.2253 0.507812 2.11171 1.32552 1.30603C2.14323 0.500345 3.27344 0 4.51562 0H25.3594C26.6016 0 27.7318 0.500345 28.5495 1.30603C29.3672 2.11171 29.875 3.2253 29.875 4.44923V8.57772H29.8776ZM22.9531 11.8312C24.0078 11.8312 24.862 12.6729 24.862 13.712C24.862 14.7512 24.0078 15.5928 22.9531 15.5928C21.8984 15.5928 21.0443 14.7512 21.0443 13.712C21.0443 12.6729 21.8984 11.8312 22.9531 11.8312Z" fill="#FFFEFB"/>
</svg>
