<svg width="23" height="23" viewBox="0 0 23 23" fill="none" xmlns="http://www.w3.org/2000/svg">
<path d="M4.47247 0.500145C5.19591 0.500143 5.66422 0.494615 6.08771 0.624168C6.59709 0.780034 7.05285 1.07648 7.40216 1.47866C7.69248 1.81306 7.87785 2.2433 8.17169 2.90444L8.64142 3.96108C8.95973 4.67729 9.17185 5.13939 9.21759 5.62026C9.25954 6.06177 9.19687 6.5068 9.03595 6.92007C8.86067 7.37018 8.53086 7.75645 8.02911 8.35854C7.48561 9.01075 7.29534 9.25004 7.1922 9.53237C7.09684 9.79341 7.0599 10.1578 7.1004 10.4328C7.14459 10.7326 7.25916 10.9602 7.6004 11.5988C8.58005 13.432 9.568 14.4199 11.4012 15.3996C12.0397 15.7408 12.2674 15.8554 12.5672 15.8996C12.8422 15.9401 13.2065 15.9031 13.4676 15.8078C13.7499 15.7046 13.9892 15.5144 14.6414 14.9708C15.2435 14.4691 15.6298 14.1393 16.0799 13.964C16.4932 13.8031 16.9382 13.7404 17.3797 13.7824C17.8606 13.8281 18.3227 14.0402 19.0389 14.3585L20.0955 14.8283C20.7566 15.1221 21.1869 15.3075 21.5213 15.5978C21.9235 15.9471 22.2199 16.4029 22.3758 16.9123C22.5053 17.3357 22.4998 17.8041 22.4998 18.5275C22.4998 19.0729 22.5 19.5113 22.4715 19.8703C22.4424 20.2366 22.3815 20.5547 22.242 20.8595C21.9346 21.5307 21.2853 22.121 20.5877 22.3624C19.979 22.5732 19.3559 22.503 18.4051 22.4113C13.045 21.894 8.83675 20.1593 5.83868 17.1613C2.84062 14.1632 1.10596 9.95498 0.588684 4.59487C0.496933 3.64403 0.426796 3.021 0.637512 2.41225C0.879002 1.71469 1.4693 1.06533 2.14044 0.757957C2.44531 0.618425 2.76332 0.557577 3.1297 0.528465C3.48868 0.499947 3.92711 0.500145 4.47247 0.500145Z" stroke="#138082" stroke-linecap="round"/>
</svg>
