<svg width="39" height="39" viewBox="0 0 39 39" fill="none" xmlns="http://www.w3.org/2000/svg">
<path fill-rule="evenodd" clip-rule="evenodd" d="M33.3125 5.66734C31.514 3.8644 29.3734 2.43497 27.0151 1.46204C24.6568 0.48912 22.1277 -0.00791002 19.5747 -0.000184046C8.8725 -0.000184046 0.1625 8.66846 0.1625 19.3244C0.162293 22.7156 1.05899 26.0471 2.7625 28.9842L0 38.9998L10.296 36.3108C13.1416 37.8544 16.3305 38.6644 19.5715 38.6667C23.4136 38.6675 27.1697 37.5345 30.3648 35.411C33.5598 33.2876 36.0502 30.269 37.521 26.737C38.9919 23.2051 39.3771 19.3184 38.628 15.5686C37.8789 11.8188 36.0291 8.37422 33.3125 5.67057V5.66734ZM19.5812 35.4117C16.6879 35.4104 13.8482 34.634 11.3604 33.1641L10.7689 32.8132L4.65887 34.406L6.28387 28.4797L5.902 27.8717C3.78447 24.5262 2.98093 20.5211 3.64511 16.6229C4.30929 12.7247 6.39456 9.20707 9.50195 6.74295C12.6093 4.27882 16.5207 3.04126 20.4876 3.26704C24.4546 3.49282 28.1986 5.16608 31.0034 7.96669C33.2625 10.2152 34.801 13.0797 35.4242 16.1982C36.0474 19.3166 35.7275 22.5489 34.5048 25.4864C33.282 28.4239 31.2115 30.9347 28.5549 32.7014C25.8983 34.468 22.7749 35.4112 19.5796 35.4117H19.5812ZM28.4375 23.3717C27.95 23.1275 25.5661 21.9633 25.1241 21.8016C24.6821 21.6399 24.3571 21.5574 24.0272 22.0458C23.6974 22.5341 22.7727 23.6158 22.49 23.9409C22.2072 24.2659 21.9229 24.3079 21.4419 24.0637C20.9609 23.8196 19.3895 23.3102 17.5419 21.6641C16.4779 20.6875 15.5635 19.5609 14.8281 18.3202C14.5437 17.8351 14.7972 17.5748 15.0442 17.3387C15.2912 17.1026 15.5317 16.776 15.7706 16.493C15.9726 16.2492 16.1369 15.9767 16.2581 15.6845C16.3226 15.5514 16.3528 15.4044 16.346 15.2568C16.3392 15.1092 16.2956 14.9655 16.2191 14.8389C16.0875 14.5963 15.1125 12.2194 14.7225 11.2508C14.3325 10.2822 13.9279 10.4423 13.6289 10.4197C13.3299 10.397 13.0227 10.4051 12.7026 10.4051C12.4558 10.4109 12.2129 10.4674 11.9892 10.5712C11.7654 10.675 11.5657 10.8238 11.4026 11.0082C10.9655 11.4885 9.70937 12.6608 9.70937 15.0378C9.70937 17.4147 11.4465 19.7076 11.6903 20.0342C11.934 20.3609 15.1125 25.2361 19.9875 27.3268C21.1445 27.8216 22.048 28.1191 22.75 28.3488C23.74 28.6458 24.7857 28.7106 25.805 28.5379C26.7377 28.4021 28.6747 27.3721 29.0826 26.2451C29.4905 25.118 29.4889 24.143 29.367 23.9506C29.2451 23.7581 28.9299 23.6175 28.4408 23.3701L28.4375 23.3717Z" fill="#FFFEFB"/>
</svg>
